<?xml version="1.0" encoding="UTF-8"?>
<svg width="1200pt" height="1200pt" version="1.1" viewBox="0 0 1200 1200" xmlns="http://www.w3.org/2000/svg">
 <path d="m969.3 600.06v-92.398h-46.332v-46.199h-45.961v-46.078h-92.27v-46.211h-46.309v-92.277h46.309v-184.57h-46.309v-46.078h-276.84v46.078h-46.309v184.58h46.309v92.277h-46.309v46.211h-92.281v46.078h-45.961v46.199h-46.32v92.398h-45.949v276.86h45.949v92.277h46.32v92.289h45.961v46.199h92.281v46.078h369.46v-46.078h92.27v-46.199h45.961v-92.289h46.332v-92.277h45.961v-276.86l-45.961 0.011719zm-92.293-46.32v46.32h-46.309v46.199h-45.961v46.078h-92.27v46.211h-184.92v-46.211h-92.27v-46.078h-45.961v-46.199h-46.32v-92.398h46.32v-46.199h92.27v-46.078h45.961v-184.58h-45.961v-92.277h45.961l0.003906-46.195h184.92v46.211h45.961v92.277h-45.961v184.58h45.961v46.078h92.27v46.199h46.309z"/>
 <path d="m646.13 138.54h46.332v46.078h-46.332z"/>
 <path d="m553.86 184.62v46.188h92.27v-46.188z"/>
 <path d="m507.53 138.54h46.32v46.078h-46.32z"/>
</svg>
