<?xml version="1.0" encoding="UTF-8"?>
<svg width="1200pt" height="1200pt" version="1.1" viewBox="0 0 1200 1200" xmlns="http://www.w3.org/2000/svg">
 <path d="m473.64 170.52h50.52v50.52h-50.52z"/>
 <path d="m574.68 170.52h50.52v50.52h-50.52z"/>
 <path d="m473.64 221.04h-50.52v101.04h50.52z"/>
 <path d="m625.2 322.08h50.641v-101.04h-50.641z"/>
 <path d="m524.16 473.64h151.68v-50.52h-101.04v-50.52h50.398v-50.523h-151.56v50.523h50.52v50.52h-101.04v50.52z"/>
 <path d="m524.16 120h50.52v50.52h-50.52z"/>
 <path d="m574.8 625.2v50.641h50.398v-101.04h-50.398z"/>
 <path d="m877.92 928.44h-151.56v-454.8h-50.52v50.52h-50.641v50.641h50.641v353.64h-252.72v-353.64h50.52v-50.641h-50.52v-50.52h-50.52v454.8h-151.56v50.52h50.52v50.52h50.52v-50.52h505.32v50.52h50.523z"/>
 <path d="m524.16 524.16h50.52v50.52h-50.52z"/>
 <path d="m473.64 574.68h50.52v50.52h-50.52z"/>
 <path d="m877.92 827.4h-50.523v50.523h101.04v-50.523z"/>
 <path d="m928.44 928.44v101.04h50.52v-151.56h-50.52z"/>
 <path d="m726.36 1029.5h-404.28v50.52h505.32v-50.52z"/>
 <path d="m877.92 1029.5h50.52v50.52h-50.52z"/>
</svg>
