<?xml version="1.0" encoding="UTF-8"?>
<svg width="1200pt" height="1200pt" version="1.1" viewBox="0 0 1200 1200" xmlns="http://www.w3.org/2000/svg">
 <path d="m563.04 489.24v-221.52h73.922v295.32h73.801v-295.32h73.918v-147.72h-369.24v147.72h73.797v295.32h73.801z"/>
 <path d="m415.44 563.04h73.801v73.801h-73.801z"/>
 <path d="m710.76 563.04h73.801v73.801h-73.801z"/>
 <path d="m341.52 636.96h73.801v73.801h-73.801z"/>
 <path d="m784.56 636.96h73.801v73.801h-73.801z"/>
 <path d="m267.72 710.76h73.801v73.801h-73.801z"/>
 <path d="m858.48 710.76h73.801v73.801h-73.801z"/>
 <path d="m193.8 784.56h73.801v73.801h-73.801z"/>
 <path d="m784.68 784.68h-73.918v-73.918h-221.52v73.918h-73.797v73.801h-73.922v73.801h516.96v-73.801h-73.801z"/>
 <path d="m932.28 784.56h73.801v73.801h-73.801z"/>
 <path d="m193.8 858.48h-73.801v147.72h73.801z"/>
 <path d="m1006.2 932.28v73.918h73.801v-147.72h-73.801z"/>
 <path d="m858.48 1006.2h-664.68v73.801h812.4v-73.801z"/>
</svg>
