<?xml version="1.0" encoding="UTF-8"?>
<svg width="1200pt" height="1200pt" version="1.1" viewBox="0 0 1200 1200" xmlns="http://www.w3.org/2000/svg">
 <path d="m1043.8 831.94-85.5-483.94c-9.5625-53.719-56.25-92.859-110.81-92.812h-33.938c-9.6094-32.719-41.062-54-75-50.812l-1.125-37.5c-1.6406-51.656-44.297-92.531-96-91.875h-82.875c-51.516-0.23438-93.844 40.734-95.25 92.25l-1.125 37.5c-33.891-3.0469-65.25 18.188-75 50.812h-34.688c-54.562-0.046875-101.25 39.094-110.81 92.812l-85.5 483.56c-15.609 88.219 40.453 173.26 127.69 193.69l67.688 15.938v27.188c0 31.078 25.172 56.25 56.25 56.25h383.63c31.078 0 56.25-25.172 56.25-56.25v-27.188l67.688-15.938c87.516-20.109 144-105.23 128.44-193.69zm-355.13 81.75 18.75 56.25h-215.06l18.75-56.25zm6.9375-37.5h-76.875v-63.188c33.938-6.6094 62.391-29.672 75.844-61.547 13.5-31.828 10.219-68.297-8.7188-97.266l-53.812-80.812c-6.7969-11.203-18.938-18.047-32.062-18.047s-25.266 6.8438-32.062 18.047l-53.812 80.812c-18.938 28.969-22.219 65.438-8.7188 97.266 13.453 31.875 41.906 54.938 75.844 61.547v63.188h-76.875l-70.312-53.812c-33.797-25.969-58.312-62.203-69.844-103.27s-9.4219-84.75 5.9062-124.55l98.625-251.26h264.37l97.688 251.26c15.328 39.797 17.438 83.484 5.9062 124.55s-36.047 77.297-69.844 103.27zm-194.81-707.44c0.70312-31.359 26.391-56.344 57.75-56.25h82.875c31.359-0.09375 57.047 24.891 57.75 56.25l1.125 36h-200.63zm-208.31 820.31c-67.594-15.844-111.14-81.609-99.375-150l85.5-483.94c6.375-35.812 37.5-61.875 73.875-61.875h33.938c6.0469 21.375 22.031 38.578 42.938 46.125l-94.312 241.87c-18.188 47.391-20.578 99.375-6.8438 148.26 13.688 48.891 42.797 92.016 82.969 123.05l64.688 49.5-23.062 67.875h-44.25c-22.641 0.046875-43.125 13.406-52.312 34.125zm615 0-63.75 15c-9.0469-20.859-29.578-34.359-52.312-34.5h-44.25l-23.062-67.875 64.688-49.5c40.078-30.984 69.141-74.109 82.875-122.9 13.688-48.75 11.344-100.69-6.75-148.03 0 0-93.75-242.26-93.75-242.06 20.812-7.6406 36.703-24.797 42.75-46.125h33.562c36.375 0 67.5 26.062 73.875 61.875l85.5 483.56c12.094 68.625-31.547 134.72-99.375 150.56z"/>
</svg>
