<?xml version="1.0" encoding="UTF-8"?>
<svg width="1200pt" height="1200pt" version="1.1" viewBox="0 0 1200 1200" xmlns="http://www.w3.org/2000/svg">
 <path d="m1200 431.4v-157.8h-77.398v49.199h-750v-49.199h-106.8v49.199h53.398v24.602h53.398v39.602h-54v13.801h-60.602v52.801h-81v60h-61.199v52.801h-57.602v85.199h-57.602v274.8h265.8v-254.4h57.602v-45h67.199v105.6h54v-105.6h43.199v67.801h54v-70.199h43.199v108h54v-64.801h54v-72h114.6v-70.199h237v-49.199h-234v-45.602h390.6zm-502.8-1.8008v96.602h-237v-121.8h237z"/>
 <path d="m506.4 443.4h147v49.199h-147z"/>
 <path d="m444.6 732.6h139.8v48.602h-139.8z"/>
</svg>
