<?xml version="1.0" encoding="UTF-8"?>
<svg width="1200pt" height="1200pt" version="1.1" viewBox="0 0 1200 1200" xmlns="http://www.w3.org/2000/svg">
 <path d="m937.31 531.24-50.766-13.922c-8.8125-2.3906-15.938-8.8594-19.172-17.391-2.5312-6.7031-5.5312-13.312-8.8594-20.297h-0.046875c-4.125-7.8281-4.125-17.203 0-25.078l25.781-44.297 0.046875 0.046875c5.3906-9.1406 4.7344-20.625-1.6875-29.062-20.062-25.453-43.453-48.141-69.469-67.453-8.4375-5.7656-19.359-6.4688-28.453-1.7812l-45.938 25.078h-0.046875c-8.4844 4.0781-18.375 4.0781-26.859 0-7.9219-3.4688-14.766-6-20.625-8.1562-8.7188-2.8125-15.562-9.6562-18.375-18.375l-14.156-48.609c-2.625-10.359-11.344-18.047-21.984-19.312-12.188-1.5-24.422-2.3438-36.703-2.625-12.047 0.46875-24.047 1.5469-36 3.2344-10.688 1.0781-19.594 8.6719-22.312 19.078l-14.156 48.703v0.046875c-2.8594 8.7188-9.75 15.609-18.469 18.469-5.8594 2.1562-12.703 4.6875-20.766 8.2969v-0.046875c-8.4844 4.0312-18.328 4.0312-26.766 0l-46.312-25.781c-9.2344-5.1094-20.531-4.4531-29.062 1.6875-26.016 19.266-49.312 41.906-69.375 67.312-6.4219 8.4375-7.0781 19.922-1.6406 29.062l25.781 44.297v-0.046875c4.5938 7.875 4.875 17.578 0.70312 25.688-3.4688 7.2188-6.4688 13.781-9 20.531-3.2344 8.5312-10.359 14.953-19.172 17.391l-50.766 13.922c-10.219 2.5312-17.859 10.969-19.453 21.375-4.5 31.406-4.5 63.328 0 94.781 1.2656 10.641 9.0938 19.312 19.547 21.609l50.391 13.781h0.046875c8.8594 2.4844 16.078 8.9531 19.406 17.531 2.5312 6.9375 5.4844 13.688 8.7656 20.297 3.8438 7.9219 3.6094 17.25-0.70312 24.938l-25.922 44.625c-5.3906 9.1875-4.5938 20.672 1.9219 29.062 20.062 25.219 43.359 47.672 69.234 66.844 8.5781 6.2812 20.062 6.8906 29.297 1.5469l45.703-24.844c8.3906-4.1719 18.234-4.4531 26.859-0.70312 6.8438 3.1406 13.781 5.9531 20.906 8.3906 8.625 3 15.375 9.8906 18.234 18.609l14.156 48c2.7188 10.688 11.906 18.516 22.922 19.453 11.953 1.6406 23.953 2.5781 36 2.8594 12.047-0.23438 24.047-1.2188 36-2.8594 10.641-1.125 19.5-8.7188 22.219-19.078l14.156-48.844c2.8125-8.6719 9.5156-15.562 18.094-18.609 7.4531-2.625 14.156-5.2969 21-8.3906 8.6719-3.8438 18.562-3.6562 27 0.5625l45.984 25.219c9.0938 5.4844 20.578 4.9219 29.156-1.3125 26.016-19.172 49.406-41.766 69.469-67.078 6.6094-8.3438 7.3594-19.969 1.7812-29.062l-25.641-45c-4.4062-7.5938-4.7344-16.922-0.84375-24.844 3.4688-7.0781 6.375-13.781 8.7656-20.156 3.2344-8.6719 10.453-15.281 19.406-17.766l49.453-13.641c10.641-1.9688 18.891-10.453 20.531-21.141 4.5-31.547 4.5-63.609 0-95.156-1.5-10.406-9.0938-18.891-19.219-21.609zm-3.8438 113.77c-0.60938 0.89062-1.5469 1.5-2.625 1.6875l-50.531 13.312c-15.984 4.4531-28.922 16.219-34.922 31.688-2.2969 6.2812-4.9688 12.469-7.9219 18.469-7.1719 14.812-6.6094 32.25 1.5938 46.547l25.688 44.391-0.046875 0.046875c0.70312 0.9375 0.70312 2.25 0 3.2344-18.844 23.719-40.828 44.812-65.25 62.766h-3.9375l-45.844-24.938-0.046875-0.046875c-14.766-7.5469-32.203-8.0625-47.391-1.3125-6.375 2.9062-12.891 5.5312-19.547 7.7812-15.422 5.6719-27.375 18.188-32.297 33.844l-14.391 49.453c-0.28125 1.2188-1.3594 2.1562-2.625 2.1562-11.016 1.5469-22.125 2.4375-33.234 2.625-11.391-0.1875-22.734-1.0312-33.984-2.625-1.3125-0.14062-2.3438-1.2188-2.5312-2.5312l-14.297-49.078h0.046875c-5.0156-15.703-17.109-28.219-32.672-33.703-6.7031-2.3906-12.844-4.9219-19.453-7.9219h0.046875c-7.0781-3-14.672-4.5469-22.359-4.5469-8.6719-0.046875-17.25 2.0625-24.938 6.0938l-45.938 24.938v0.046875c-1.2188 0.79688-2.7656 0.79688-3.9844 0-24.328-17.906-46.125-38.906-64.922-62.531-0.65625-0.98438-0.65625-2.25 0-3.2344l25.781-44.531c8.2031-14.297 8.7656-31.734 1.5938-46.547-3.1406-6.4688-5.7656-12-8.0625-18.609-5.8594-15.609-18.844-27.469-34.922-31.922l-50.766-13.453c-1.0312-0.1875-1.875-0.89062-2.25-1.9219-4.2188-29.578-4.2188-59.578 0-89.156 0.51562-0.9375 1.4531-1.6406 2.5312-1.9219l50.484-13.547c15.984-4.3594 28.922-16.078 34.828-31.547 2.4375-6.375 5.2031-12.656 8.25-18.75 7.125-14.906 6.4688-32.297-1.6875-46.641l-25.781-44.156v-0.046875c-0.51562-0.89062-0.51562-2.0625 0-3 18.75-23.766 40.5-44.953 64.781-63 1.4062-0.70312 3.0938-0.70312 4.4531 0l45.938 25.078h0.046875c14.719 7.7344 32.156 8.1562 47.25 1.2188 7.3125-3.2344 13.781-5.5312 19.312-7.5469 15.609-5.4844 27.703-17.953 32.672-33.75l14.391-49.219v0.046875c0.32812-1.2188 1.3594-2.1094 2.625-2.1562 12-1.6875 22.547-2.625 33-3.1406 10.453-0.46875 22.453 1.4531 34.453 3.1406 1.1719 0.32812 2.1094 1.3125 2.2969 2.5312l14.297 49.078h-0.046875c5.1094 15.609 17.156 27.984 32.672 33.469 5.5312 2.0625 12 4.3125 19.219 7.5469h-0.046875c15.141 6.9375 32.625 6.5156 47.391-1.2188l45.938-25.078h0.046875c1.3594-0.70312 2.9531-0.70312 4.3125 0 24.328 18.094 46.125 39.328 64.781 63.141 0.60938 0.89062 0.60938 2.1094 0 3l-25.875 43.781c-8.2031 14.438-8.7656 31.969-1.5938 46.922 3.0469 6.0469 5.7656 12.188 8.1562 18.516 5.8594 15.516 18.797 27.375 34.828 31.781l50.766 13.781c1.0312 0.28125 1.9688 0.98438 2.4844 1.9219 4.125 29.625 4.0781 59.719-0.23438 89.297z"/>
 <path d="m600 414.24c-49.266 0-96.516 19.594-131.34 54.422-34.828 34.828-54.422 82.078-54.422 131.34s19.594 96.516 54.422 131.34c34.828 34.828 82.078 54.422 131.34 54.422s96.516-19.594 131.34-54.422c34.828-34.828 54.422-82.078 54.422-131.34-0.046875-49.266-19.641-96.469-54.469-131.29s-82.031-54.422-131.29-54.469zm0 348c-65.812 0-125.11-39.656-150.24-100.45-25.172-60.797-11.203-130.78 35.391-177.24 46.594-46.5 116.58-60.328 177.32-35.016 60.75 25.266 100.27 84.656 100.12 150.47-0.14062 89.766-72.844 162.47-162.61 162.61z"/>
</svg>
