<?xml version="1.0" encoding="UTF-8"?>
<svg width="1200pt" height="1200pt" version="1.1" viewBox="0 0 1200 1200" xmlns="http://www.w3.org/2000/svg">
 <path d="m971.44 257.02v-57.141h-285.74v57.188h-57.141v57.188h-57.141v114.33h-57.141v171.47h-57.141v171.47h-57.141v114.33h-57.141v57.188h-57.141v57.188h914.29v-57.188h-57.141v-57.188h-57.141v-57.188h-57.141v-171.47h-57.141v114.33h-57.141v57.188h-57.141v-57.188h-57.141v57.188h-57.141v-57.188h-57.141v-171.47h57.141v-57.188h57.141v57.188h57.141v-114.33h57.141v114.33h57.141v-57.188h57.141v114.33h57.141l0.14062-342.98h-57.141v114.33h-114.28v-57.188h57.141v-57.188h57.141v-57.188h-57.141zm-114.28 171.47h-114.28v-57.188h57.141v-57.188h57.141z"/>
 <path d="m0 1000.1h57.141v-57.188l-57.141 0.046875v57.188z"/>
 <path d="m114.28 1000.1h114.28v-57.188h-114.28z"/>
</svg>
