<?xml version="1.0" encoding="UTF-8"?>
<svg width="1200pt" height="1200pt" version="1.1" viewBox="0 0 1200 1200" xmlns="http://www.w3.org/2000/svg">
 <path d="m162.94 9.0469h411.79v65.625h-411.79z"/>
 <path d="m531.74 254.21h394.45v65.625h-394.45z"/>
 <path d="m531.74 144.79h394.45v65.625h-394.45z"/>
 <path d="m162.94 552.84h288.14v70.125h-288.14z"/>
 <path d="m825.14 552.84h101.06v70.125h-101.06z"/>
 <path d="m751.22 497.06v-116.16h-219.47v242.11h219.47v-70.172h-71.625v-55.781z"/>
 <path d="m162.94 679.6h288.14v70.125h-288.14z"/>
 <path d="m1109.5 240.61v-73.172h-83.719v-92.766h-73.172v92.766h66.375v794.21h-66.375v59.578l-866.63 0.046876v-791.95h76.172v276.05h288.14v-371.11h-288.14v-59.578h-86.719v92.766h-75.422v862.08h85.969v79.219h106.36v82.219h1008.4v-950.34zm-24.141 883.22h-778.36v-24.891h779.11v24.891z"/>
 <path d="m531.74 679.6h394.45v70.125h-394.45z"/>
 <path d="m531.74 788.21h394.45v70.125h-394.45z"/>
 <path d="m531.74 891.52h394.45v70.125h-394.45z"/>
 <path d="m162.94 805.55h288.14v156.14h-288.14z"/>
</svg>
