<?xml version="1.0" encoding="UTF-8"?>
<svg width="1200pt" height="1200pt" version="1.1" viewBox="0 0 1200 1200" xmlns="http://www.w3.org/2000/svg">
 <path d="m1100 274.87v-50.016h-49.969v50.016h-550.08v-50.016h-199.97v50.016h-150v50.016h-49.969v150.05h49.969v100.03h-49.969v100.03h-49.969v100.03l-50.062 0.09375v150.05h49.969v50.016h300v-50.016h-49.969v-200.06h49.969v-50.016h199.97v-50.016h-150v-100.03h49.969v50.016h49.969v-100.03h49.969v150.05h49.969v-150.05h600l0.09375-200.16h-100.03zm-900.05 600.24h-49.969v50.016h-49.969v-50.016h-49.969v-50.016h49.969v-50.016h49.969v50.016h49.969zm450.05-450.19h-49.969v-50.016h49.969zm99.984 0h-49.969v-50.016h49.969zm100.03 0h-49.969v-50.016h49.969zm99.984 0h-49.969v-50.016h49.969zm99.984 0h-49.969v-50.016h49.969zm100.03 0h-49.969v-50.016h49.969z"/>
</svg>
