<?xml version="1.0" encoding="UTF-8"?>
<svg width="1200pt" height="1200pt" version="1.1" viewBox="0 0 1200 1200" xmlns="http://www.w3.org/2000/svg">
 <path d="m627.24 163.64v-54.562h-109.08v-54.562h54.516v-54.516h218.11v54.562h163.6v54.562h54.516v54.562h54.516v54.562h-54.516v54.562h109.08v54.562h-490.74v-54.562h-54.516v-54.562h109.08v-54.562h-54.516z"/>
 <path d="m790.82 600v54.562h218.11v-54.562h54.516v-54.562h54.516v-163.64h-436.22v163.64h54.516v54.562zm163.6-109.08v-54.562h109.08v54.562zm-54.562 54.562h54.516v54.562h-54.516zm-109.03-54.562v-54.562h109.08v54.562z"/>
 <path d="m354.61 1145.5v54.562h-163.55v-54.562h109.08v-54.562h-218.16v-54.562h54.516v-54.562h54.516v-54.562h54.516v-54.562h54.516v-54.562h54.516v-109.12h54.516v-109.12h54.516v-54.562h54.516v-54.562h54.516v-54.562h54.516v109.12h54.516v54.562h54.516v54.562h54.516v54.562h54.516v163.64h-54.516v109.12h-54.516v109.12h-54.516v54.562h-54.516v54.562h-54.516v-163.64h-54.516v54.562h-54.516v54.562h-109.08z"/>
 <path d="m899.86 763.64h54.516v54.562h-54.516z"/>
 <path d="m954.42 818.21h54.516v109.12h-54.516z"/>
</svg>
