<?xml version="1.0" encoding="UTF-8"?>
<svg width="1200pt" height="1200pt" version="1.1" viewBox="0 0 1200 1200" xmlns="http://www.w3.org/2000/svg">
 <path d="m1065.9 452.47v-64.941h66.352v-304.94h67.766v-62.824h-78.352v54.352h-96v75.531h-105.88v105.18h-118.59v62.824h-60.707v64.941h-57.883v56.469h-76.234v108.71h-59.293v172.94h-53.648v-241.41h-52.941v-92.469h-49.41v-53.648h49.41v-67.059h97.41v-112.23h-67.059v45.176h-94.59v55.059h-48v62.824l-194.82-0.003906v-62.824h-66.352v-100.23h-67.059v112.23h54.352v67.059h51.531v53.648h-66.352v153.18h50.117v63.531h-50.117v127.77h53.648v56.469h166.59v-56.469h60.707v-60h107.29v146.12h-156v276h-17.648v86.824h280.23v-164.47h149.65v49.41h56.469v39.531h-59.293v75.531h139.77v-71.293h59.293v-93.176h45.176v93.176h67.059v71.293h176.47v-83.293h-113.65v-117.88h-62.824v-52.234h-59.293v-67.059h-60v-42.352h-121.41v-41.648h182.12v-67.059h-182.12v-45.176h280.23v-67.059h-230.12v-45.176h230.12v-50.117h-153.88v-48.707h188.47zm-750.35 151.06h-113.65v-63.531h113.65zm106.59 496.94h-40.234v-97.41h40.234z"/>
</svg>
