<?xml version="1.0" encoding="UTF-8"?>
<svg width="1200pt" height="1200pt" version="1.1" viewBox="0 0 1200 1200" xmlns="http://www.w3.org/2000/svg">
 <path d="m536.04 152.04h63.961v63.961h-63.961z"/>
 <path d="m792 152.04h63.961v63.961h-63.961z"/>
 <path d="m663.96 279.96v-63.961h-63.961v128.04h63.961z"/>
 <path d="m600 408v-63.961h-128.04v63.961z"/>
 <path d="m855.96 408v-63.961h-127.92v63.961z"/>
 <path d="m408 408h63.961v63.961h-63.961z"/>
 <path d="m663.96 408h63.961v63.961h-63.961z"/>
 <path d="m920.04 279.96v-63.961h-64.078v128.04h64.078z"/>
 <path d="m152.04 600h127.92v128.04h-127.92v63.961h192v63.961h63.961v64.078h-63.961v63.961h639.96v-63.961h-63.961v-64.078h63.961v-63.961h63.961v-255.96h-895.92zm639.96 192h63.961v-128.04h64.078v128.04h-64.078v63.961h-63.961z"/>
 <path d="m87.961 663.96v64.078h64.078v-128.04h-64.078z"/>
</svg>
