<?xml version="1.0" encoding="UTF-8"?>
<svg width="1200pt" height="1200pt" version="1.1" viewBox="0 0 1200 1200" xmlns="http://www.w3.org/2000/svg">
 <path d="m540 60v-60h-59.953v60z"/>
 <path d="m719.95 60h-59.953v60h59.953z"/>
 <path d="m959.9 60h-59.953v60h59.953z"/>
 <path d="m599.95 120v60h59.953v-60z"/>
 <path d="m779.9 180v-60h-59.953v60z"/>
 <path d="m360.1 240v-60h-59.953v60z"/>
 <path d="m719.95 240v-60h-59.953v60z"/>
 <path d="m899.86 240h-59.953v60h59.953z"/>
 <path d="m779.9 300v60h59.953v-60z"/>
 <path d="m959.9 300h-59.953v60h59.953z"/>
 <path d="m360.1 360v60h299.9v-60z"/>
 <path d="m839.9 420h59.953v-60h-59.953z"/>
 <path d="m300.14 480h59.953v-60h-59.953z"/>
 <path d="m660 420v60h59.953v-60z"/>
 <path d="m240.1 540h59.953v-60h-59.953z"/>
 <path d="m719.95 480v60h59.953v-60z"/>
 <path d="m180.14 1200h539.81v-60h-479.86v-600h-59.953z"/>
 <path d="m839.9 1200v-660h-59.953v660z"/>
 <path d="m1019.9 540h-59.953v60h59.953z"/>
 <path d="m719.95 780h-179.95v60h179.95z"/>
 <path d="m899.86 840h59.953v-60h-59.953z"/>
 <path d="m719.95 900h-299.9v60h299.9z"/>
 <path d="m300.14 1080h419.81v-60l-419.81-0.046875z"/>
</svg>
