<?xml version="1.0" encoding="UTF-8"?>
<svg width="1200pt" height="1200pt" version="1.1" viewBox="0 0 1200 1200" xmlns="http://www.w3.org/2000/svg">
 <path d="m555 120-30 30 30 30-30 30 30 30-30 30 30 30-30 30 30 30-30 30 30 30-30 30 30 30-30 30 30 30-30 30 30 30-30 30 30 30-30 30 30 30-30 30 30 30-30 30-30-30c-9.9375 9.9844-19.969 19.969-29.953 30l30 30-30 30 30 30-30 30 30 30-30 30 30 30-30 30 30 30-30 30 30 30-30 30 30 30c30-30 59.953-60 89.953-90l-30-30 30-30-30-30 30-30-30-30 30-30-30-30 30-30-30-30 30-30 30 30 30-30 30 30c20.016-20.016 39.984-39.984 59.953-60l-30-30 30-30-30-30 30-30-30-30 30-30-30-30 30-30-30-30 30-30-30-30 30-30-30-30 30-30c-20.016-20.016-39.984-39.984-59.953-60l30-30c-20.016-20.016-39.984-39.984-59.953-60l30-30c-60.047-60-120.05-120-180-180l-30 30 30 30-30 30 30 30 30-30 30 30z"/>
 <path d="m495.05 180 30-30-30-30-30 30 30 30z"/>
 <path d="m495.05 180-30 30 30 30 30-30-30-30z"/>
 <path d="m495.05 240-30 30 30 30 30-30-30-30z"/>
 <path d="m495.05 300c-9.9844 10.031-20.016 20.016-30 30l30 30 30-30-30-30z"/>
 <path d="m495.05 360c-9.9844 10.031-20.016 20.016-30 30l30 30 30-30-30-30z"/>
 <path d="m495.05 420-30 30 30 30 30-30-30-30z"/>
 <path d="m495.05 480c-9.9844 10.031-20.016 20.016-30 30l30 30 30-30-30-30z"/>
 <path d="m495.05 540c-9.9844 10.031-20.016 20.016-30 30l30 30 30-30-30-30z"/>
 <path d="m495.05 600-30 30 30 30 30-30-30-30z"/>
 <path d="m495.05 660-30 30 30 30 30-30-30-30z"/>
 <path d="m495.05 720c-9.9844 9.9844-20.016 19.969-30 30l30 30 30-30-30-30z"/>
</svg>
